<svg xmlns="http://www.w3.org/2000/svg" viewBox="0 0 340 365" x="0px" y="0px" fill="white" stroke="white"><path d="M12.126,325.434a3.426,3.426,0,0,0,3.421,3.281c.049,0,.1,0,.148,0v0h29.31a6.047,6.047,0,0,0,5.868-7.555c-8-30.472-.916-57.183,3.493-69.385a42.9,42.9,0,0,1,11.093-17.06C76.1,224.91,89,223.093,100.611,224.411c.2.031,39.694,6.051,51.512,48.191a3.426,3.426,0,1,0,6.673-1.56c-7.343-31.4-28.143-48.813-44.3-57.892A107.73,107.73,0,0,0,80.967,200.9q-22.234-3.552-33.432-14.652c-5.488-10.7-5.647-22.721.453-28.5,6.268-5.944,15.85-2.48,15.85-2.48l0,0a54.168,54.168,0,0,0,4.167,14.14,38.275,38.275,0,0,0,7.975,12.863v0h0c9.681,10.4,22.8,13.809,24.479,14.209,31.294,9.721,52.505,29.522,63.047,58.855a112.568,112.568,0,0,1,6.524,41.857c-.008.09-.011.18-.011.271v27.836a3.427,3.427,0,1,0,6.853,0V297.579c.04-.568.156-2.525.125-5.538l1.188-52.361c.3-1.191.593-2.389.913-3.572,9.037-33.378,1.9-76.337,1.9-76.337,18.288,34.749,12.145,66.5,8.377,86.388-1.365,7.205-2.926,14.415-2.926,21.825v57.3a3.427,3.427,0,1,0,6.853,0v-57.3a75.642,75.642,0,0,1,2.681-20.011c2.548-9.281,2.983-24.6,3.5-41.121a62.313,62.313,0,0,0,31.725,15.385,57.013,57.013,0,0,0-1.807,13.708,3.428,3.428,0,0,0,3.377,3.476h.05a3.427,3.427,0,0,0,3.426-3.377c.136-9.39,2.591-15.238,2.642-15.358.007-.016.009-.032.016-.048s.021-.039.029-.06a11.976,11.976,0,0,1,3.305-4.761,10.61,10.61,0,0,1,8.633-2.428,11.961,11.961,0,0,1,8.332,5.469,19.4,19.4,0,0,1,2.38,5.736c-8.574,14.7-9.806,44.241-9.2,67.624h0v.006c0,.189.01.376.015.564.057,3.453-.173,21.851-11.1,31.261a2.634,2.634,0,0,0,1.661,4.667h14.959l16.649,0c.061,0,.122,0,.183,0a3.428,3.428,0,0,0,3.419-3.247c1.291-24.5-.2-49.413-1.8-66.827h4.35a12.624,12.624,0,0,0,6.031,4.962c.114,35.136-.063,61.4-.065,61.662a3.428,3.428,0,0,0,3.4,3.45h.024a3.426,3.426,0,0,0,3.426-3.4c0-.19.092-13.574.1-33.965l12.676-6.55c-.132,16.517-.369,30.058-.712,40.377a3.426,3.426,0,0,0,3.311,3.539l.115,0a3.428,3.428,0,0,0,3.423-3.313c.49-14.755.768-36,.827-63.125a15.482,15.482,0,0,0,7.578-13.293V230.159a15.484,15.484,0,0,0-7.657-13.341c-.21-42.46-.725-83.047-1.017-103.575a49.166,49.166,0,0,1,3.062-17.589,284.882,284.882,0,0,0,12.726-50.472,3.425,3.425,0,0,0-.5-2.334c-9.932-15.564-32-30.366-32.938-30.988a3.428,3.428,0,0,0-4.236.345c-21.238,19.8-25.914,50.865-26.1,52.177a3.426,3.426,0,0,0,.515,2.35C271.364,77,283.172,85.391,288.362,88.773l-1.617,3.868a41.907,41.907,0,0,0-3.146,18.411c1.386,24.568,2.337,59.759,2.828,104.611A12.642,12.642,0,0,0,280,221.827H267.95a26.063,26.063,0,0,0-2.937-6.624,18.811,18.811,0,0,0-13.109-8.591,17.609,17.609,0,0,0-14.117,4,18.231,18.231,0,0,0-4.09,5.053,55.373,55.373,0,0,1-33.873-18.31,3.32,3.32,0,0,0-.4-.375c-.81-17.573-5.634-35.413-18.812-48-.057-.7-.1-1.39-.171-2.108a33.913,33.913,0,0,0-2.537-10.131c-2.418-5.607-5.426-8.112-8.149-9.116a142.416,142.416,0,0,0-2.868-20.74c33.192,4.693,54.427-3.177,66.784-11.2,15.343-9.954,20.756-22.146,20.979-22.661a3.426,3.426,0,0,0-2.722-4.763c-27.173-3.365-57.561-3.147-82.617-1.909a58.153,58.153,0,0,0-23.481-39.893c-11.519-8.625-24.714-12.786-33.755-14.757a18.881,18.881,0,0,0-19.129,7.212c-11.594,15.605-20.683,19.815-26.266,20.6-5.334.748-8.291-1.46-8.372-1.521a3.427,3.427,0,0,0-5.571,3.073,45.837,45.837,0,0,0,1.446,7.152A21.727,21.727,0,0,0,67.459,62.576a22.193,22.193,0,0,0,19.857-1.987c2.88-1.812,5.359-3.2,7.321-4.225L93.644,73.95c-8.253,1.3-15.71,2.679-22.048,4.088-35.722,7.939-50.762,3.456-50.888,3.417a3.427,3.427,0,0,0-3.723,5.421c13.944,17.113,31.086,22.393,46.935,22.393a85.351,85.351,0,0,0,22.091-3.11,29.864,29.864,0,0,0-1.236,4.711c-11.64,2-35.011,8.523-48.2,29.292a39.57,39.57,0,0,0-5.417,30.375,43.446,43.446,0,0,0,5.671,13.252A307,307,0,0,1,24.272,231.91C10.043,272.409,12.034,323.288,12.126,325.434ZM293.012,19.144c5.637,4.02,20.367,15.111,27.991,26.328-.869,5.411-4.646,27.175-12.184,47.833a56,56,0,0,0-3.476,20.035c.286,20.172.79,59.724,1,101.378-.322-.02-.642-.049-.97-.049H293.271c-.5-44.519-1.348-79.506-2.83-104a32.375,32.375,0,0,1,4.65-18.7c4.114-7.088,13.331-24.345,12.458-39.827a20.253,20.253,0,0,0-3.486-10.377,9.37,9.37,0,0,0-15.439-.109,44.363,44.363,0,0,0-6.972,17.126,3.561,3.561,0,0,0,2.523,4.187,3.43,3.43,0,0,0,4.17-2.7,40.405,40.405,0,0,1,4.108-12.124,3.967,3.967,0,0,1,7.065.183,11.1,11.1,0,0,1,1.182,4.06,42,42,0,0,1-.751,11.464c-1.071,3.582-3.838,8.136-10.974,8.805a18.955,18.955,0,0,1-16.549-6.907c-.422-.546-.831-1.1-1.22-1.654C272.257,58.452,277.4,35.144,293.012,19.144Zm-7.407,208.1a5.727,5.727,0,0,1,5.721-5.721h14.052a8.646,8.646,0,0,1,8.637,8.637v18.825a8.646,8.646,0,0,1-8.637,8.637H291.326a5.727,5.727,0,0,1-5.721-5.721Zm-18.445,1.438h11.592v23.107H260.8C262.016,242.54,264.019,234.352,267.16,228.681Zm-173.4-105c-2.212-1.806-2.676-5.461-2.667-6.759a23.361,23.361,0,0,1,3.54-12.893c1.781-.379,3.573-.714,5.373-1.02a38.61,38.61,0,0,1,5.417,9.749,8.958,8.958,0,0,0,7.929,5.825c.189.012.377.017.565.017a8.876,8.876,0,0,0,7.937-4.81,41.41,41.41,0,0,0,4.234-12.652A142.473,142.473,0,0,1,153.74,104.5c1.983.441,3.918.827,5.828,1.186.337,1.343.659,2.711.952,4.13a42.981,42.981,0,0,0-4.129,1.429,3.427,3.427,0,0,0,2.655,6.319c.016-.007,1.076-.443,2.662-.944q.729,4.97,1.142,10.425H157.4a18.136,18.136,0,0,0-14.536,7.176c-3.012,4.05-8.632,8.877-18.3,8.877-13.151,0-19.536-16.053-19.654-16.356a3.2,3.2,0,0,0-3.908-2.132C97.78,125.289,95.341,124.978,93.759,123.685Zm77.857,15.779a27.1,27.1,0,0,1,2.009,8.087c3.586,36.535-11.6,50.888-16.18,54.34-27.572-10.742-37.918-34.862-38.018-35.1a3.428,3.428,0,0,0-3.044-2.115l-.123,0a3.426,3.426,0,0,0-3.065,1.894,9.865,9.865,0,0,1-4,4.08,41.057,41.057,0,0,1-9.386-10.959,24.28,24.28,0,0,1-2.446-19.035,21.8,21.8,0,0,1,3.385-6.852c3.467,6.13,11.083,16.153,23.821,16.153,12.514,0,19.849-6.329,23.8-11.639A11.256,11.256,0,0,1,157.4,133.9h9.069C168.859,133.9,170.719,137.385,171.616,139.464Zm-58.786-61.3L128.5,75.9a2.463,2.463,0,0,0,1.068-4.449,21.021,21.021,0,0,0-9.987-3.27,7.364,7.364,0,0,1-6.589-6.948L111.352,32.1c1.922-13.454,17.93-7.513,18.094-7.451,14.671,6.816,29.608,19.295,33,42.084-4.388.257-8.579.54-12.5.833a3.427,3.427,0,0,0,.512,6.834c25.719-1.925,62.6-3.4,95.475.079-24.938,21.825-53.741,16.773-53.741,16.773s-34.144-6.928-69.526-5.69c-25,.874-30.431-2.328-31.467-4.282C97.862,80.185,105.134,79.134,112.83,78.163Z"/><path d="M157.321,281.935a3.427,3.427,0,0,0-3.093,3.731q.089.944.161,1.9a3.426,3.426,0,0,0,3.413,3.169c.086,0,.174,0,.261-.01a3.427,3.427,0,0,0,3.16-3.675q-.078-1.02-.171-2.024A3.434,3.434,0,0,0,157.321,281.935Z"/><path d="M138.638,117.815a26.626,26.626,0,0,1,3.769.665,3.427,3.427,0,0,0,1.827-6.606,33.329,33.329,0,0,0-4.949-.882,3.427,3.427,0,1,0-.647,6.823Z"/></svg>