<svg xmlns="http://www.w3.org/2000/svg" viewBox="0 0 24 30" fill="none" x="0px" y="0px"><path fill-rule="evenodd" clip-rule="evenodd" d="M3.70711 2.29289C3.31658 1.90237 2.68342 1.90237 2.29289 2.29289C1.90237 2.68342 1.90237 3.31658 2.29289 3.70711L20.2929 21.7071C20.6834 22.0976 21.3166 22.0976 21.7071 21.7071C22.0976 21.3166 22.0976 20.6834 21.7071 20.2929L17.7142 16.3C18.2084 15.9735 18.6791 15.6 19.1193 15.1795L21.6907 12.7231C21.8883 12.5344 22 12.2732 22 12C22 11.7268 21.8883 11.4656 21.6907 11.2769L19.1193 8.82054C16.1485 5.98263 11.795 5.28626 8.14564 6.73143L3.70711 2.29289ZM9.24261 7.8284L16.1716 14.7574C16.6951 13.967 17 13.0191 17 12C17 9.23858 14.7614 7 12 7C10.9809 7 10.033 7.30488 9.24261 7.8284Z" fill="black"/><path d="M4.88069 8.82054C4.97066 8.73459 5.06191 8.6506 5.15437 8.56858L7.19576 10.61C7.0683 11.0513 7 11.5177 7 12C7 14.7614 9.23858 17 12 17C12.4823 17 12.9487 16.9317 13.39 16.8042L14.3263 17.7406C11.0426 18.4838 7.44614 17.6301 4.88069 15.1795L2.30926 12.7231C2.11174 12.5344 2 12.2732 2 12C2 11.7268 2.11174 11.4656 2.30926 11.2769L4.88069 8.82054Z" fill="black"/><text x="0" y="39" fill="#000000" font-size="5px" font-weight="bold" font-family="'Helvetica Neue', Helvetica, Arial-Unicode, Arial, Sans-serif">Created by Heztasia</text><text x="0" y="44" fill="#000000" font-size="5px" font-weight="bold" font-family="'Helvetica Neue', Helvetica, Arial-Unicode, Arial, Sans-serif">from the Noun Project</text></svg>